# xmcd
#
# Track frame offsets: 
#        150
#        13922
#        29420
#        48277
#        67622
#        89482
#        101452
#        121542
#        133837
#
# Disc length: 2040 seconds
#
# Revision: 0
# Processed by: cddbd v1.5.1PL0 Copyright (c) Steve Scherf et al.
# Submitted via: ExactAudioCopy v0.95b3
#
DISCID=6b07f609
DTITLE=Vernon Oxford - The Gospel Truth
DYEAR=1997
DGENRE=Gospel
TTITLE0=The Great Speckled Bird
TTITLE1=I feel Like Traveling On
TTITLE2=Beautiful Star of Bethlehem
TTITLE3=A Tramp On The Street
TTITLE4=Suppertime
TTITLE5=Give Them The Roses
TTITLE6=If We Never Meet again
TTITLE7=Medley - 3 Tracks
TTITLE8=My Jesus I Love Thee
EXTD=
EXTT0=
EXTT1=
EXTT2=
EXTT3=
EXTT4=
EXTT5=
EXTT6=
EXTT7=When We All See Jesus\nStanding On The Promisess\nOld Camp Meeti
EXTT7=ng Days
EXTT8=
PLAYORDER=
